<?xml version="1.0" encoding="UTF-8" standalone="no"?>
<!DOCTYPE svg PUBLIC "-//W3C//DTD SVG 1.1//EN"
 "http://www.w3.org/Graphics/SVG/1.1/DTD/svg11.dtd">
<!-- Generated by graphviz version 14.0.1 (20251006.0113)
 -->
<!-- Title: Inheritance Pages: 1 -->
<svg width="288pt" height="469pt"
 viewBox="0.00 0.00 288.00 469.00" xmlns="http://www.w3.org/2000/svg" xmlns:xlink="http://www.w3.org/1999/xlink">
<g id="graph0" class="graph" transform="scale(1 1) rotate(0) translate(4 464.5)">
<title>Inheritance</title>
<!-- IMU -->
<g id="node1" class="node">
<title>IMU</title>
<polygon fill="#9fafb7" stroke="none" points="9,-431.25 9,-455.5 271,-455.5 271,-431.25 9,-431.25"/>
<polygon fill="none" stroke="black" points="9,-431.25 9,-455.5 271,-455.5 271,-431.25 9,-431.25"/>
<text xml:space="preserve" text-anchor="start" x="125.75" y="-437.25" font-family="Helvetica Neue, Helvetica, Arial" font-weight="bold" font-size="15.00">IMU</text>
<polygon fill="#ffffff" stroke="none" points="9,-399.25 9,-431.25 271,-431.25 271,-399.25 9,-399.25"/>
<polygon fill="none" stroke="black" points="9,-399.25 9,-431.25 271,-431.25 271,-399.25 9,-399.25"/>
<text xml:space="preserve" text-anchor="start" x="14" y="-413.95" font-family="Helvetica Neue, Helvetica, Arial" font-weight="bold" font-size="14.00">Subcomponents</text>
<text xml:space="preserve" text-anchor="start" x="65.75" y="-405.65" font-family="Helvetica Neue, Helvetica, Arial" font-size="8.00"> </text>
<polygon fill="#ffffff" stroke="none" points="9,-333.25 9,-399.25 271,-399.25 271,-333.25 9,-333.25"/>
<polygon fill="none" stroke="black" points="9,-333.25 9,-399.25 271,-399.25 271,-333.25 9,-333.25"/>
<text xml:space="preserve" text-anchor="start" x="14" y="-381.95" font-family="Helvetica Neue, Helvetica, Arial" font-weight="bold" font-size="14.00">Parameters</text>
<text xml:space="preserve" text-anchor="start" x="14" y="-367.95" font-family="Helvetica Neue, Helvetica, Arial" font-size="14.00">+ bool accelerometer</text>
<text xml:space="preserve" text-anchor="start" x="14" y="-353.95" font-family="Helvetica Neue, Helvetica, Arial" font-size="14.00">+ bool gyro</text>
<text xml:space="preserve" text-anchor="start" x="14" y="-339.95" font-family="Helvetica Neue, Helvetica, Arial" font-size="14.00">+ bool magnetometer</text>
<polygon fill="#ffffff" stroke="none" points="9,-253.25 9,-333.25 271,-333.25 271,-253.25 9,-253.25"/>
<polygon fill="none" stroke="black" points="9,-253.25 9,-333.25 271,-333.25 271,-253.25 9,-253.25"/>
<text xml:space="preserve" text-anchor="start" x="14" y="-315.95" font-family="Helvetica Neue, Helvetica, Arial" font-weight="bold" font-size="14.00">Functions</text>
<text xml:space="preserve" text-anchor="start" x="14" y="-301.95" font-family="Helvetica Neue, Helvetica, Arial" font-size="14.00">+ void init()</text>
<text xml:space="preserve" text-anchor="start" x="14" y="-287.95" font-family="Helvetica Neue, Helvetica, Arial" font-size="14.00">+ float[] getAcceleration()</text>
<text xml:space="preserve" text-anchor="start" x="14" y="-273.95" font-family="Helvetica Neue, Helvetica, Arial" font-size="14.00">+ float[] getAngularVelocity()</text>
<text xml:space="preserve" text-anchor="start" x="17.75" y="-259.95" font-family="Helvetica Neue, Helvetica, Arial" font-size="14.00">+ float[] getMagneticField()</text>
<polygon fill="none" stroke="black" points="8,-252.25 8,-456.5 272,-456.5 272,-252.25 8,-252.25"/>
</g>
<!-- MPU6050 -->
<g id="node2" class="node">
<title>MPU6050</title>
<polygon fill="#9fafb7" stroke="none" points="9,-183 9,-207.25 271,-207.25 271,-183 9,-183"/>
<polygon fill="none" stroke="black" points="9,-183 9,-207.25 271,-207.25 271,-183 9,-183"/>
<text xml:space="preserve" text-anchor="start" x="106.62" y="-189" font-family="Helvetica Neue, Helvetica, Arial" font-weight="bold" font-size="15.00">MPU6050</text>
<polygon fill="#ffffff" stroke="none" points="9,-151 9,-183 271,-183 271,-151 9,-151"/>
<polygon fill="none" stroke="black" points="9,-151 9,-183 271,-183 271,-151 9,-151"/>
<text xml:space="preserve" text-anchor="start" x="14" y="-165.7" font-family="Helvetica Neue, Helvetica, Arial" font-weight="bold" font-size="14.00">Subcomponents</text>
<text xml:space="preserve" text-anchor="start" x="65.75" y="-157.4" font-family="Helvetica Neue, Helvetica, Arial" font-size="8.00"> </text>
<polygon fill="#ffffff" stroke="none" points="9,-85 9,-151 271,-151 271,-85 9,-85"/>
<polygon fill="none" stroke="black" points="9,-85 9,-151 271,-151 271,-85 9,-85"/>
<text xml:space="preserve" text-anchor="start" x="14" y="-133.7" font-family="Helvetica Neue, Helvetica, Arial" font-weight="bold" font-size="14.00">Parameters</text>
<text xml:space="preserve" text-anchor="start" x="14" y="-119.7" font-family="Helvetica Neue, Helvetica, Arial" font-size="14.00">+ bool accelerometer = true</text>
<text xml:space="preserve" text-anchor="start" x="14" y="-105.7" font-family="Helvetica Neue, Helvetica, Arial" font-size="14.00">+ bool gyro = true</text>
<text xml:space="preserve" text-anchor="start" x="14" y="-91.7" font-family="Helvetica Neue, Helvetica, Arial" font-size="14.00">+ bool magnetometer = false</text>
<polygon fill="#ffffff" stroke="none" points="9,-5 9,-85 271,-85 271,-5 9,-5"/>
<polygon fill="none" stroke="black" points="9,-5 9,-85 271,-85 271,-5 9,-5"/>
<text xml:space="preserve" text-anchor="start" x="14" y="-67.7" font-family="Helvetica Neue, Helvetica, Arial" font-weight="bold" font-size="14.00">Functions</text>
<text xml:space="preserve" text-anchor="start" x="14" y="-53.7" font-family="Helvetica Neue, Helvetica, Arial" font-size="14.00">+ void init()</text>
<text xml:space="preserve" text-anchor="start" x="14" y="-39.7" font-family="Helvetica Neue, Helvetica, Arial" font-size="14.00">+ float[] getAcceleration()</text>
<text xml:space="preserve" text-anchor="start" x="14" y="-25.7" font-family="Helvetica Neue, Helvetica, Arial" font-size="14.00">+ float[] getAngularVelocity()</text>
<text xml:space="preserve" text-anchor="start" x="14" y="-11.7" font-family="Helvetica Neue, Helvetica, Arial" font-size="14.00">+ @Override float[] getMagneticField()</text>
<polygon fill="none" stroke="black" points="8,-4 8,-208.25 272,-208.25 272,-4 8,-4"/>
</g>
<!-- IMU&#45;&gt;MPU6050 -->
<g id="edge1" class="edge">
<title>IMU&#45;&gt;MPU6050</title>
<path fill="none" stroke="black" d="M140,-248.59C140,-240.31 140,-231.91 140,-223.56"/>
<polygon fill="black" stroke="black" points="143.5,-223.73 140,-213.73 136.5,-223.73 143.5,-223.73"/>
</g>
</g>
</svg>
